PathFileType	4	(X/Y/Z)	F:\biomechanics\vid_Sports2D\vid_Sports2D_px_person00.trc
DataRate	CameraRate	NumFrames	NumMarkers	Units	OrigDataRate	OrigDataStartFrame	OrigNumFrames
250.0	250.0	11	22	m	250.0	101	808
Frame#	Time	Hip			RHip			RKnee			RAnkle			RBigToe			RSmallToe			RHeel			LHip			LKnee			LAnkle			LBigToe			LSmallToe			LHeel			Neck			Head			Nose			RShoulder			RElbow			RWrist			LShoulder			LElbow			LWrist			
		X1	Y1	Z1	X2	Y2	Z2	X3	Y3	Z3	X4	Y4	Z4	X5	Y5	Z5	X6	Y6	Z6	X7	Y7	Z7	X8	Y8	Z8	X9	Y9	Z9	X10	Y10	Z10	X11	Y11	Z11	X12	Y12	Z12	X13	Y13	Z13	X14	Y14	Z14	X15	Y15	Z15	X16	Y16	Z16	X17	Y17	Z17	X18	Y18	Z18	X19	Y19	Z19	X20	Y20	Z20	X21	Y21	Z21	X22	Y22	Z22
101	0.40450061957868655	97.97279259909996	309.54225341784496	0.0	83.3360607664497	308.83660997261495	0.0	120.11692756304207	375.41997360267084	0.0	64.65890644562913	420.6054869065417	0.0	76.23544317595491	448.8986687604328	0.0	65.41113265691236	445.20544584754737	0.0	52.94536524298028	423.2750952115078	0.0	110.21895428066937	310.7781066492971	0.0	126.2986452786379	375.67089083283764	0.0	99.50412236472192	437.2539822180805	0.0	126.78745211202144	449.97976962415174	0.0	123.75548233127104	447.63228033629645	0.0	90.63712673370752	445.12328964645	0.0	118.53283111769417	219.2278588334391	0.0	128.6280774312629	171.33826850661484	0.0	141.40662722457813	196.2484332481399	0.0	97.56611435675272	230.36957304755597	0.0	68.03969796778986	264.82373873489763	0.0	106.4435764607468	281.374816882858	0.0	136.94495127116983	232.86590760761658	0.0	146.21494955121165	268.52672880771524	0.0	150.3334205619869	283.7274568651289	0.0
102	0.4085055762081785	98.61167873603598	309.41740220737887	0.0	84.08186108540707	308.7837988992545	0.0	121.33744715183612	375.09428945436827	0.0	66.32835615640285	420.7318713235469	0.0	78.31149986038083	448.84111673229455	0.0	67.51711344203392	445.1698763733471	0.0	54.6337759838113	423.5548770225718	0.0	110.79700902280595	310.6716824337258	0.0	126.34352441584623	375.6363055976134	0.0	99.57692355209234	437.0447202349587	0.0	126.77835150925753	449.91326438104335	0.0	123.78682652615234	447.5503943699137	0.0	90.74756417433825	444.89496529062404	0.0	119.05170504563984	218.99951879886626	0.0	129.11377329078692	171.0651000216807	0.0	141.84072734409165	195.93948585897394	0.0	98.03952621307232	230.11173047669718	0.0	68.45480549633818	264.41874410313596	0.0	106.89047581055237	280.9427427182892	0.0	137.59529484652583	232.56304600108442	0.0	147.00879717000961	268.13889843443303	0.0	150.92384662109765	283.539937989613	0.0
103	0.4125105328376704	99.25390209609677	309.28475338992376	0.0	84.83910708847435	308.7239099904486	0.0	122.54617329875043	374.77347077498916	0.0	68.00659173150244	420.87085024473026	0.0	80.39788933331637	448.80279270040893	0.0	69.64120343284367	445.15934472794436	0.0	56.33052053535522	423.84459384484506	0.0	111.36990657464209	310.55396362084184	0.0	126.35908301992961	375.58537218777724	0.0	99.65025517369297	436.8099495529262	0.0	126.75991579983673	449.8531221797467	0.0	123.8158763729038	447.4559658745282	0.0	90.84944796582477	444.6378130168089	0.0	119.57898821416819	218.76226330338454	0.0	129.60596671733606	170.7918711157478	0.0	142.27861445559242	195.62451629079726	0.0	98.51562128520158	229.85077836039463	0.0	68.87362678926112	264.00814841745506	0.0	107.3405333257203	280.504003562752	0.0	138.24624619153312	232.2590588761586	0.0	147.7996245580298	267.7452012559652	0.0	151.50915474641243	283.34138802926066	0.0
104	0.4165154894671624	99.89935430424558	309.1439024737071	0.0	85.60787623653913	308.6554962354297	0.0	123.74400220236193	374.4566910007227	0.0	69.69331854724247	421.02427477762313	0.0	82.49549278574123	448.78465502079115	0.0	71.78272765002615	445.17568952940206	0.0	58.03559817420616	424.14539041146736	0.0	111.93844252821036	310.42417070426256	0.0	126.34627644941551	375.5167785814595	0.0	99.72379250806277	436.54809648810743	0.0	126.7322284422614	449.8002329694874	0.0	123.84253801265307	447.3485747825201	0.0	90.94133327986479	444.35020197063466	0.0	120.11461502950463	218.51621090978372	0.0	130.1041847118185	170.51838954199354	0.0	142.72070141575017	195.30395520782275	0.0	98.99484932873534	229.58708048351235	0.0	69.2958210949591	263.5925202007189	0.0	107.79344942334713	280.0590956986164	0.0	138.89718608971629	231.9537299977406	0.0	148.58671756116334	267.3460600981461	0.0	152.0896836470341	283.12898602485427	0.0
105	0.42052044609665434	100.5477953452727	308.99457697229997	0.0	86.38806993944164	308.5772027225104	0.0	124.93175042620115	374.1430332988387	0.0	71.38804217916864	421.1938427844682	0.0	84.60487494158404	448.7872316206453	0.0	73.94039762733833	445.2204567368013	0.0	59.74899197426216	424.45857755725564	0.0	112.50339153535074	310.28171147782496	0.0	126.30652745833008	375.4294738079304	0.0	99.7968553548645	436.2579557595947	0.0	126.69555207357936	449.7549660050003	0.0	123.86684513212876	447.2275426420603	0.0	91.02161093364876	444.03089946912854	0.0	120.65846488155559	218.26150632710903	0.0	130.60769261649554	170.24431411648487	0.0	143.16734674107258	194.97815894393534	0.0	99.47772323684508	229.32106257950997	0.0	69.72114622054822	263.17249911001267	0.0	108.24913223819766	279.60864881410026	0.0	139.54744675004864	231.64672609043157	0.0	149.3693247323729	266.9419817616258	0.0	152.66578577819607	282.90031541262925	0.0
106	0.4245254027261463	101.19900667810577	308.8365611262358	0.0	87.17946527472317	308.4877647302811	0.0	126.10996365388786	373.8315073724354	0.0	73.09024232276872	421.3809799957107	0.0	86.72633897835992	448.81054226523884	0.0	76.11255122517203	445.2948061678079	0.0	61.47087469120074	424.78562086219847	0.0	113.06562932796216	310.1261534460105	0.0	126.24187961166733	375.32276772115836	0.0	99.86835468517144	435.9387371322701	0.0	126.6503148843231	449.71694985778277	0.0	123.8888727872649	447.0918261059409	0.0	91.0884511950315	443.6790110504778	0.0	121.21038124281516	217.99830471766498	0.0	131.11554883234285	169.96913140076367	0.0	143.6189218635462	194.6474070575274	0.0	99.9647288217663	229.05316361792737	0.0	70.14940796851448	262.7488933844455	0.0	108.70755511665709	279.15338006945376	0.0	140.19635797050114	231.33762281560968	0.0	150.14678573514126	266.5334212809651	0.0	153.23789239581598	282.65341990955693	0.0
107	0.4285303593556382	101.85266840823122	308.66958732465116	0.0	87.98148546402444	308.38600087500936	0.0	127.2788894978668	373.52102050001844	0.0	74.79934699581779	421.5867012637343	0.0	88.85988668050267	448.85404031819655	0.0	78.29735693137869	445.3994258168168	0.0	63.20153739876966	425.1280397153215	0.0	113.62597976694421	309.95719621785344	0.0	126.15509004686824	375.19637951644705	0.0	99.93670388793777	435.59007106086943	0.0	126.5971292211222	449.68504722512216	0.0	123.90863164053084	446.94002971345304	0.0	91.13979897832148	443.2939793197877	0.0	121.77003550347804	217.7268152553942	0.0	131.6267181241131	169.69214650584283	0.0	144.0758519255325	194.3119929625559	0.0	100.45623127624826	228.78375598152357	0.0	70.58037491147297	262.32270584947236	0.0	109.16873868550543	278.69403695541786	0.0	140.8432353450347	231.02595819516472	0.0	150.91856896620558	266.12077348773533	0.0	153.8064129588293	282.3868222339311	0.0
108	0.4325353159851302	102.50817189313956	308.4932781531486	0.0	88.79305436386437	308.27080276894503	0.0	128.43855105574835	373.2104107060953	0.0	76.51466749576078	421.8115105152738	0.0	91.00503716721481	448.91667862447815	0.0	80.49283782496727	445.5344872717269	0.0	64.94115783155696	425.48724274156154	0.0	114.18498374567555	309.7746567755599	0.0	126.04953306466238	375.05045944366816	0.0	99.999808301269	435.21203837206644	0.0	126.53683869334435	449.65743326153046	0.0	123.92609132721074	446.7704491647037	0.0	91.17350145701064	442.8756431185552	0.0	122.33685216893589	217.44730069760078	0.0	132.14017388901246	169.4125762249325	0.0	144.53860198432773	193.97233082592794	0.0	100.9525088107382	228.51305572412457	0.0	71.01376708726417	261.89504350331697	0.0	109.63284147877711	278.2313493233931	0.0	141.48736874566708	230.71136092137746	0.0	151.68426474123157	265.7044449148068	0.0	154.37164813032288	282.09951798376653	0.0
109	0.43654027261462214	103.16471869140526	308.3071492651671	0.0	89.61278354531855	308.14113215953495	0.0	129.58882624339964	372.89856956688385	0.0	78.23541433304773	422.0553923112127	0.0	93.16064885311278	448.9971112038005	0.0	82.69683172472708	445.6995315782379	0.0	66.68969444187783	425.86434207424446	0.0	114.74293745209388	309.5784876573645	0.0	125.92908042283884	374.8855627103904	0.0	100.05525872351333	434.8052873607317	0.0	126.47049823482065	449.63171393816833	0.0	123.94131131795132	446.5811412290288	0.0	91.18752870514653	442.42437392715647	0.0	122.91013036998743	217.16003562536105	0.0	132.6549350361406	169.12972894945943	0.0	145.0076049622619	193.62894620615302	0.0	101.45388046579538	228.24106272951036	0.0	71.44933210003049	261.4669926212931	0.0	110.10012493693895	277.7660047321741	0.0	142.12804415680662	230.3936675102544	0.0	152.4436523053758	265.28491475223393	0.0	154.93388047063615	281.79094498290146	0.0
110	0.44054522924411404	103.82157772131116	308.11068584540755	0.0	90.43923632059413	307.9960105903729	0.0	130.72951718041426	372.584566619913	0.0	79.96068858766418	422.3178899830889	0.0	95.32476564086555	449.09391924852497	0.0	84.90684217812903	445.8933199532158	0.0	68.44686925826396	426.25999789511394	0.0	115.30011275341822	309.3687729790776	0.0	125.79794177427931	374.7025991516593	0.0	100.10064352487163	434.3711708355865	0.0	126.39933157689048	449.6051267726619	0.0	123.95457992408865	446.37006029277694	0.0	91.18019948071776	441.94123137894314	0.0	123.48917415850893	216.86530271534383	0.0	133.17008278672114	168.84307256498178	0.0	145.48318985578413	193.28240107615756	0.0	101.96076916272601	227.96757915873147	0.0	71.88692426259317	261.03951018098115	0.0	110.57076730333546	277.2986075614466	0.0	142.76457221182244	230.07290378233978	0.0	153.19679934342818	264.86272972995266	0.0	155.49349431354236	281.46090542921155	0.0
111	0.444550185873606	104.47821470336594	307.90346569297594	0.0	91.27106206890248	307.8345298344721	0.0	131.86048340883764	372.26774258751885	0.0	81.6894057817143	422.59817584565286	0.0	97.49450225508775	449.2057357796886	0.0	87.11985679115337	446.1138755574299	0.0	70.21217057228992	426.67431460467645	0.0	115.85689912016194	309.14566424497866	0.0	125.66037282584122	374.50282370998394	0.0	100.13382022665388	433.9118175986165	0.0	126.32480026630857	449.5747948346645	0.0	123.96652110967909	446.13525562042014	0.0	91.1504340722984	441.4280696633704	0.0	124.07327268049994	216.56342830496013	0.0	133.684786153819	168.55216772524048	0.0	145.965565705384	192.933295124534	0.0	102.47354740818444	227.69230212827532	0.0	72.32647791344529	260.61335044412294	0.0	111.04468391890228	276.8295948870164	0.0	143.3963178588904	229.7491352684764	0.0	153.94404569090392	264.43843261547494	0.0	156.05101061410085	281.1094905875357	0.0
